<svg xmlns="http://www.w3.org/2000/svg" xmlns:xlink="http://www.w3.org/1999/xlink" width="121" zoomAndPan="magnify" viewBox="0 0 90.75 90.749999" height="121" preserveAspectRatio="xMidYMid meet" version="1.2"><defs><clipPath id="891a07c138"><path d="M 0 0 L 90.5 0 L 90.5 90.5 L 0 90.5 Z M 0 0 "/></clipPath><clipPath id="50e8ea299c"><path d="M 10.582031 16.507812 L 79 16.507812 L 79 74.097656 L 10.582031 74.097656 Z M 10.582031 16.507812 "/></clipPath><clipPath id="2315740a33"><path d="M 44.5625 16.1875 C 53.210938 16.1875 58.375 20.171875 67.640625 20.171875 L 73.023438 20.171875 C 77.304688 20.171875 78.847656 23.0625 78.496094 27.21875 C 76.070312 41.273438 75.804688 49.019531 73.421875 63.027344 C 71.746094 72.132812 49.769531 76.03125 44.5625 76.03125 C 39.3125 76.03125 17.382812 72.132812 15.707031 63.027344 C 13.28125 49.019531 13.015625 41.273438 10.632812 27.21875 C 10.277344 23.0625 11.777344 20.171875 16.101562 20.171875 L 21.488281 20.171875 C 30.707031 20.171875 35.871094 16.1875 44.5625 16.1875 Z M 55.992188 56.898438 C 57.140625 56.898438 58.199219 56.417969 58.949219 55.671875 C 59.699219 54.929688 60.183594 53.878906 60.183594 52.742188 L 60.183594 39.476562 C 60.183594 38.339844 59.699219 37.289062 58.949219 36.542969 C 58.199219 35.800781 57.140625 35.316406 55.992188 35.316406 L 33.089844 35.316406 C 31.945312 35.316406 30.886719 35.800781 30.136719 36.542969 C 29.382812 37.289062 28.945312 38.339844 28.945312 39.476562 L 28.945312 52.742188 C 28.945312 53.878906 29.382812 54.929688 30.136719 55.671875 C 30.886719 56.417969 31.945312 56.898438 33.089844 56.898438 Z M 31.855469 53.964844 C 31.546875 53.660156 31.328125 53.222656 31.328125 52.742188 L 31.328125 39.476562 C 31.328125 38.996094 31.546875 38.558594 31.855469 38.25 C 32.164062 37.945312 32.605469 37.726562 33.089844 37.726562 L 55.992188 37.726562 C 56.476562 37.726562 56.917969 37.945312 57.226562 38.25 C 57.535156 38.558594 57.757812 38.996094 57.757812 39.476562 L 57.757812 52.742188 C 57.757812 53.222656 57.535156 53.660156 57.226562 53.964844 C 56.917969 54.273438 56.476562 54.492188 55.992188 54.492188 L 33.089844 54.492188 C 32.605469 54.492188 32.164062 54.273438 31.855469 53.964844 Z M 55.242188 49.371094 C 55.550781 48.320312 55.683594 47.226562 55.683594 46.128906 C 55.683594 44.992188 55.550781 43.898438 55.242188 42.847656 C 54.976562 41.796875 54.535156 40.789062 53.960938 39.828125 C 53.699219 39.34375 53.167969 39.257812 52.769531 39.566406 C 52.375 39.914062 52.285156 40.570312 52.550781 41.007812 C 52.992188 41.796875 53.328125 42.628906 53.566406 43.503906 C 53.800781 44.351562 53.917969 45.226562 53.917969 46.128906 C 53.917969 47.007812 53.800781 47.882812 53.566406 48.757812 C 53.328125 49.605469 52.992188 50.421875 52.550781 51.207031 C 52.285156 51.691406 52.375 52.347656 52.769531 52.652344 C 53.167969 53.003906 53.699219 52.871094 53.960938 52.390625 C 54.535156 51.425781 54.976562 50.421875 55.242188 49.371094 Z M 48.535156 46.875 C 48.5625 46.613281 48.578125 46.363281 48.578125 46.128906 C 48.578125 45.867188 48.5625 45.605469 48.535156 45.34375 C 48.503906 45.082031 48.460938 44.832031 48.402344 44.597656 C 48.269531 44.03125 47.785156 43.722656 47.300781 43.855469 C 46.859375 44.03125 46.59375 44.597656 46.726562 45.125 C 46.753906 45.300781 46.785156 45.460938 46.8125 45.605469 C 46.8125 45.78125 46.8125 45.957031 46.8125 46.128906 C 46.8125 46.304688 46.8125 46.464844 46.8125 46.613281 C 46.785156 46.757812 46.753906 46.917969 46.726562 47.09375 C 46.59375 47.664062 46.859375 48.230469 47.300781 48.363281 C 47.785156 48.539062 48.269531 48.1875 48.402344 47.664062 C 48.460938 47.398438 48.503906 47.136719 48.535156 46.875 Z M 51.757812 48.1875 C 51.902344 47.515625 51.976562 46.832031 51.976562 46.128906 C 51.976562 45.429688 51.902344 44.730469 51.757812 44.03125 C 51.609375 43.359375 51.386719 42.714844 51.09375 42.101562 C 50.828125 41.578125 50.300781 41.402344 49.902344 41.664062 C 49.460938 41.972656 49.328125 42.585938 49.550781 43.109375 C 49.785156 43.578125 49.960938 44.074219 50.078125 44.597656 C 50.195312 45.09375 50.253906 45.605469 50.253906 46.128906 C 50.253906 46.65625 50.195312 47.167969 50.078125 47.664062 C 49.960938 48.160156 49.785156 48.640625 49.550781 49.109375 C 49.328125 49.632812 49.460938 50.246094 49.902344 50.550781 C 50.300781 50.816406 50.828125 50.640625 51.09375 50.15625 C 51.386719 49.515625 51.609375 48.859375 51.757812 48.1875 Z M 51.757812 48.1875 "/></clipPath><linearGradient x1="0.376" gradientTransform="matrix(1.540936,0,0,1.53323,10.582227,16.188408)" y1="0.207548" x2="0.376" gradientUnits="userSpaceOnUse" y2="37.76964" id="4ae2bcda9a"><stop style="stop-color:#7832d2;stop-opacity:1;" offset="0"/><stop style="stop-color:#7832d2;stop-opacity:1;" offset="0.0625"/><stop style="stop-color:#7832d2;stop-opacity:1;" offset="0.09375"/><stop style="stop-color:#7832d2;stop-opacity:1;" offset="0.109375"/><stop style="stop-color:#7731d2;stop-opacity:1;" offset="0.117188"/><stop style="stop-color:#7631d1;stop-opacity:1;" offset="0.125"/><stop style="stop-color:#7631d1;stop-opacity:1;" offset="0.132812"/><stop style="stop-color:#7531d1;stop-opacity:1;" offset="0.140625"/><stop style="stop-color:#7430d1;stop-opacity:1;" offset="0.148438"/><stop style="stop-color:#7430d1;stop-opacity:1;" offset="0.15625"/><stop style="stop-color:#7330d0;stop-opacity:1;" offset="0.164062"/><stop style="stop-color:#7330d0;stop-opacity:1;" offset="0.171875"/><stop style="stop-color:#722fd0;stop-opacity:1;" offset="0.179688"/><stop style="stop-color:#712fd0;stop-opacity:1;" offset="0.1875"/><stop style="stop-color:#712fcf;stop-opacity:1;" offset="0.195312"/><stop style="stop-color:#702fcf;stop-opacity:1;" offset="0.203125"/><stop style="stop-color:#6f2ecf;stop-opacity:1;" offset="0.210938"/><stop style="stop-color:#6f2ecf;stop-opacity:1;" offset="0.21875"/><stop style="stop-color:#6e2ecf;stop-opacity:1;" offset="0.226562"/><stop style="stop-color:#6e2dce;stop-opacity:1;" offset="0.234375"/><stop style="stop-color:#6d2dce;stop-opacity:1;" offset="0.242188"/><stop style="stop-color:#6c2dce;stop-opacity:1;" offset="0.25"/><stop style="stop-color:#6c2dce;stop-opacity:1;" offset="0.257812"/><stop style="stop-color:#6b2ccd;stop-opacity:1;" offset="0.265625"/><stop style="stop-color:#6b2ccd;stop-opacity:1;" offset="0.273438"/><stop style="stop-color:#6a2ccd;stop-opacity:1;" offset="0.28125"/><stop style="stop-color:#692ccd;stop-opacity:1;" offset="0.289063"/><stop style="stop-color:#692bcc;stop-opacity:1;" offset="0.296875"/><stop style="stop-color:#682bcc;stop-opacity:1;" offset="0.304688"/><stop style="stop-color:#672bcc;stop-opacity:1;" offset="0.3125"/><stop style="stop-color:#672bcc;stop-opacity:1;" offset="0.320312"/><stop style="stop-color:#662acc;stop-opacity:1;" offset="0.328125"/><stop style="stop-color:#662acb;stop-opacity:1;" offset="0.335938"/><stop style="stop-color:#652acb;stop-opacity:1;" offset="0.34375"/><stop style="stop-color:#6429cb;stop-opacity:1;" offset="0.351562"/><stop style="stop-color:#6429cb;stop-opacity:1;" offset="0.359375"/><stop style="stop-color:#6329ca;stop-opacity:1;" offset="0.367188"/><stop style="stop-color:#6229ca;stop-opacity:1;" offset="0.375"/><stop style="stop-color:#6228ca;stop-opacity:1;" offset="0.382812"/><stop style="stop-color:#6128ca;stop-opacity:1;" offset="0.390625"/><stop style="stop-color:#6128ca;stop-opacity:1;" offset="0.398438"/><stop style="stop-color:#6028c9;stop-opacity:1;" offset="0.40625"/><stop style="stop-color:#5f27c9;stop-opacity:1;" offset="0.414062"/><stop style="stop-color:#5f27c9;stop-opacity:1;" offset="0.421875"/><stop style="stop-color:#5e27c9;stop-opacity:1;" offset="0.429688"/><stop style="stop-color:#5e27c8;stop-opacity:1;" offset="0.4375"/><stop style="stop-color:#5d26c8;stop-opacity:1;" offset="0.445312"/><stop style="stop-color:#5c26c8;stop-opacity:1;" offset="0.453125"/><stop style="stop-color:#5c26c8;stop-opacity:1;" offset="0.460938"/><stop style="stop-color:#5b25c8;stop-opacity:1;" offset="0.46875"/><stop style="stop-color:#5a25c7;stop-opacity:1;" offset="0.476562"/><stop style="stop-color:#5a25c7;stop-opacity:1;" offset="0.484375"/><stop style="stop-color:#5925c7;stop-opacity:1;" offset="0.492188"/><stop style="stop-color:#5924c7;stop-opacity:1;" offset="0.5"/><stop style="stop-color:#5824c6;stop-opacity:1;" offset="0.507812"/><stop style="stop-color:#5724c6;stop-opacity:1;" offset="0.515625"/><stop style="stop-color:#5724c6;stop-opacity:1;" offset="0.523437"/><stop style="stop-color:#5623c6;stop-opacity:1;" offset="0.53125"/><stop style="stop-color:#5523c5;stop-opacity:1;" offset="0.539062"/><stop style="stop-color:#5523c5;stop-opacity:1;" offset="0.546875"/><stop style="stop-color:#5423c5;stop-opacity:1;" offset="0.554688"/><stop style="stop-color:#5422c5;stop-opacity:1;" offset="0.5625"/><stop style="stop-color:#5322c5;stop-opacity:1;" offset="0.570312"/><stop style="stop-color:#5222c4;stop-opacity:1;" offset="0.578125"/><stop style="stop-color:#5221c4;stop-opacity:1;" offset="0.585938"/><stop style="stop-color:#5121c4;stop-opacity:1;" offset="0.59375"/><stop style="stop-color:#5021c4;stop-opacity:1;" offset="0.601563"/><stop style="stop-color:#5021c3;stop-opacity:1;" offset="0.609375"/><stop style="stop-color:#4f20c3;stop-opacity:1;" offset="0.617187"/><stop style="stop-color:#4f20c3;stop-opacity:1;" offset="0.625"/><stop style="stop-color:#4e20c3;stop-opacity:1;" offset="0.632812"/><stop style="stop-color:#4d20c3;stop-opacity:1;" offset="0.640625"/><stop style="stop-color:#4d1fc2;stop-opacity:1;" offset="0.648437"/><stop style="stop-color:#4c1fc2;stop-opacity:1;" offset="0.65625"/><stop style="stop-color:#4c1fc2;stop-opacity:1;" offset="0.664062"/><stop style="stop-color:#4b1fc2;stop-opacity:1;" offset="0.671875"/><stop style="stop-color:#4a1ec1;stop-opacity:1;" offset="0.679688"/><stop style="stop-color:#4a1ec1;stop-opacity:1;" offset="0.6875"/><stop style="stop-color:#491ec1;stop-opacity:1;" offset="0.695312"/><stop style="stop-color:#481dc1;stop-opacity:1;" offset="0.703125"/><stop style="stop-color:#481dc1;stop-opacity:1;" offset="0.710938"/><stop style="stop-color:#471dc0;stop-opacity:1;" offset="0.71875"/><stop style="stop-color:#471dc0;stop-opacity:1;" offset="0.726562"/><stop style="stop-color:#461cc0;stop-opacity:1;" offset="0.734375"/><stop style="stop-color:#451cc0;stop-opacity:1;" offset="0.742187"/><stop style="stop-color:#451cbf;stop-opacity:1;" offset="0.75"/><stop style="stop-color:#441cbf;stop-opacity:1;" offset="0.757812"/><stop style="stop-color:#431bbf;stop-opacity:1;" offset="0.765625"/><stop style="stop-color:#431bbf;stop-opacity:1;" offset="0.773437"/><stop style="stop-color:#421bbe;stop-opacity:1;" offset="0.78125"/><stop style="stop-color:#421bbe;stop-opacity:1;" offset="0.789062"/><stop style="stop-color:#411abe;stop-opacity:1;" offset="0.796875"/><stop style="stop-color:#401abe;stop-opacity:1;" offset="0.804688"/><stop style="stop-color:#401abe;stop-opacity:1;" offset="0.8125"/><stop style="stop-color:#3f1abd;stop-opacity:1;" offset="0.820312"/><stop style="stop-color:#3f19bd;stop-opacity:1;" offset="0.828125"/><stop style="stop-color:#3e19bd;stop-opacity:1;" offset="0.835937"/><stop style="stop-color:#3d19bd;stop-opacity:1;" offset="0.84375"/><stop style="stop-color:#3d18bc;stop-opacity:1;" offset="0.851562"/><stop style="stop-color:#3c18bc;stop-opacity:1;" offset="0.859375"/><stop style="stop-color:#3b18bc;stop-opacity:1;" offset="0.867187"/><stop style="stop-color:#3b18bc;stop-opacity:1;" offset="0.875"/><stop style="stop-color:#3a17bc;stop-opacity:1;" offset="0.882812"/><stop style="stop-color:#3a17bb;stop-opacity:1;" offset="0.890625"/><stop style="stop-color:#3917bb;stop-opacity:1;" offset="0.898438"/><stop style="stop-color:#3817bb;stop-opacity:1;" offset="0.90625"/><stop style="stop-color:#3816bb;stop-opacity:1;" offset="0.914062"/><stop style="stop-color:#3716ba;stop-opacity:1;" offset="0.921875"/><stop style="stop-color:#3616ba;stop-opacity:1;" offset="0.929688"/><stop style="stop-color:#3616ba;stop-opacity:1;" offset="0.9375"/><stop style="stop-color:#3515ba;stop-opacity:1;" offset="0.945313"/><stop style="stop-color:#3515ba;stop-opacity:1;" offset="0.953125"/><stop style="stop-color:#3415b9;stop-opacity:1;" offset="0.960937"/><stop style="stop-color:#3314b9;stop-opacity:1;" offset="0.96875"/><stop style="stop-color:#3314b9;stop-opacity:1;" offset="0.976562"/><stop style="stop-color:#3214b9;stop-opacity:1;" offset="0.984375"/><stop style="stop-color:#3114b8;stop-opacity:1;" offset="0.992188"/><stop style="stop-color:#3113b8;stop-opacity:1;" offset="1"/></linearGradient></defs><g id="c1138ed8f2"><g clip-rule="nonzero" clip-path="url(#891a07c138)"><path style=" stroke:none;fill-rule:nonzero;fill:#ffffff;fill-opacity:1;" d="M 0 0 L 90.5 0 L 90.5 90.5 L 0 90.5 Z M 0 0 "/><path style=" stroke:none;fill-rule:nonzero;fill:#f4f8ff;fill-opacity:1;" d="M 0 0 L 90.5 0 L 90.5 90.5 L 0 90.5 Z M 0 0 "/></g><g clip-rule="nonzero" clip-path="url(#50e8ea299c)"><g clip-rule="evenodd" clip-path="url(#2315740a33)"><path style=" stroke:none;fill-rule:nonzero;fill:url(#4ae2bcda9a);" d="M 10.582031 16.507812 L 10.582031 74.097656 L 78.847656 74.097656 L 78.847656 16.507812 Z M 10.582031 16.507812 "/></g></g></g></svg>