<svg width="166" height="40" viewBox="0 0 166 40" fill="none" xmlns="http://www.w3.org/2000/svg">
<path fill-rule="evenodd" clip-rule="evenodd" d="M80.7825 5.93863H85.8795V13.4475C87.3399 12.6767 89.0007 12.2199 90.7474 12.2199C93.6396 12.2199 96.2453 13.3904 98.1066 15.2748C99.9965 17.1592 101.171 19.7573 101.171 22.6124C101.171 25.4961 99.9965 28.0942 98.1066 29.9786C96.2453 31.8344 93.6396 33.005 90.7474 33.005C89.0007 33.005 87.3399 32.5767 85.8795 31.7773V32.5767H80.7825V5.93863ZM66.0069 19.9572C65.5201 19.1578 64.8329 18.4725 64.0597 18.0157H64.0311C63.2579 17.5874 62.3416 17.3305 61.368 17.3305C59.9077 17.3305 58.5618 17.9301 57.6169 18.8722C56.6433 19.843 56.042 21.1563 56.042 22.641C56.042 24.0971 56.6433 25.439 57.6169 26.3812C58.5618 27.3519 59.9077 27.9515 61.368 27.9515C62.3416 27.9515 63.2579 27.6945 64.0311 27.2377H64.0597C64.8329 26.7809 65.5201 26.1242 66.0069 25.2962L70.388 27.8087C69.4717 29.4361 68.1259 30.7209 66.5796 31.606V31.6346C65.0333 32.5196 63.2293 33.0336 61.368 33.0336C58.5046 33.0336 55.8988 31.863 54.0089 29.9786C52.119 28.0942 50.9449 25.4961 50.9449 22.641C50.9449 19.7573 52.119 17.1592 54.0089 15.3034C55.8988 13.419 58.5046 12.2484 61.368 12.2484C63.2293 12.2484 65.0333 12.7338 66.5796 13.6474C68.1259 14.561 69.4717 15.8458 70.388 17.4447L66.0069 19.9572ZM72.6788 13.1335H77.7472V32.6053H72.6788V13.1335ZM77.9476 8.67953C77.9476 10.1927 76.7163 11.4204 75.1987 11.4204C73.7097 11.4204 72.4784 10.1927 72.4784 8.67953C72.4784 7.16632 73.7097 5.93863 75.1987 5.93863C76.7163 5.93863 77.9476 7.16632 77.9476 8.67953ZM87.5403 26.8665C88.4567 27.5518 89.5734 27.9515 90.7761 27.9515C92.2365 27.9515 93.5823 27.3519 94.5272 26.3812C95.5008 25.439 96.1022 24.0971 96.1022 22.641C96.1022 21.1563 95.5008 19.843 94.5272 18.8722C93.5823 17.9301 92.2365 17.3305 90.7761 17.3305C89.602 17.3305 88.5139 17.6731 87.6549 18.3298C85.1064 20.1285 85.0491 25.0107 87.5403 26.8665Z" fill="#373435"/>
<path fill-rule="evenodd" clip-rule="evenodd" d="M124.508 23.2405C124.508 29.2648 120.327 33.0907 114.944 33.0907C112.567 33.0907 110.592 32.3483 109.16 30.778V39.7145H103.605V13.676H108.931V15.8744C110.305 14.2184 112.367 13.3904 114.944 13.3904C120.327 13.3904 124.508 17.2163 124.508 23.2405ZM118.867 23.2405C118.867 19.9286 116.777 17.9301 113.999 17.9301C111.193 17.9301 109.103 19.9286 109.103 23.2405C109.103 26.5525 111.193 28.551 113.999 28.551C116.777 28.551 118.867 26.5525 118.867 23.2405ZM143.579 21.8986V32.8337H138.367V30.4354C137.337 32.177 135.332 33.0907 132.526 33.0907C128.03 33.0907 125.338 30.6067 125.338 27.2948C125.338 23.9258 127.744 21.5846 133.585 21.5846H138.024C138.024 19.1863 136.592 17.7873 133.585 17.7873C131.552 17.7873 129.462 18.4725 128.059 19.586L126.054 15.7031C128.173 14.2184 131.266 13.3904 134.33 13.3904C140.2 13.3904 143.579 16.1028 143.579 21.8986ZM138.024 26.7809V24.8109H134.187C131.581 24.8109 130.779 25.7816 130.779 27.0664C130.779 28.4368 131.953 29.379 133.9 29.379C135.762 29.379 137.365 28.5225 138.024 26.7809ZM166 13.676L157.352 34.0043C155.491 38.6296 152.828 40 149.392 40C147.416 40 145.268 39.3719 144.037 38.2584L146.07 34.3183C146.929 35.0607 148.103 35.5175 149.191 35.5175C150.738 35.5175 151.597 34.8608 152.341 33.1478L152.398 32.9479L144.094 13.676H149.85L155.233 26.6667L160.645 13.676H166Z" fill="#7832D2"/>
<path fill-rule="evenodd" clip-rule="evenodd" d="M22.0524 0C27.6649 0 31.0152 2.59815 37.0285 2.59815H40.5219C43.2995 2.59815 44.3017 4.48251 44.0727 7.19486C42.4977 16.3597 42.3259 21.4133 40.7796 30.5496C39.6915 36.4882 25.4313 39.0293 22.0524 39.0293C18.6449 39.0293 4.41334 36.4882 3.32521 30.5496C1.75029 21.4133 1.57848 16.3597 0.0322008 7.19486C-0.196878 4.48251 0.776708 2.59815 3.58293 2.59815H7.07638C13.0611 2.59815 16.4114 0 22.0524 0ZM29.4689 26.5525C30.2134 26.5525 30.9006 26.2384 31.3874 25.753C31.8742 25.2677 32.1892 24.5824 32.1892 23.8401V15.1891C32.1892 14.4468 31.8742 13.7616 31.3874 13.2762C30.9006 12.7909 30.2134 12.4768 29.4689 12.4768H14.6074C13.8629 12.4768 13.1756 12.7909 12.6888 13.2762C12.202 13.7616 11.9157 14.4468 11.9157 15.1891V23.8401C11.9157 24.5824 12.202 25.2677 12.6888 25.753C13.1756 26.2384 13.8629 26.5525 14.6074 26.5525H29.4689ZM13.8056 24.6395C13.6051 24.4397 13.462 24.1542 13.462 23.8401V15.1891C13.462 14.8751 13.6051 14.5896 13.8056 14.3897C14.006 14.1899 14.2924 14.0471 14.6074 14.0471H29.4689C29.7838 14.0471 30.0702 14.1899 30.2706 14.3897C30.4711 14.5896 30.6143 14.8751 30.6143 15.1891V23.8401C30.6143 24.1542 30.4711 24.4397 30.2706 24.6395C30.0702 24.8394 29.7838 24.9822 29.4689 24.9822H14.6074C14.2924 24.9822 14.006 24.8394 13.8056 24.6395ZM28.9821 21.6417C29.1825 20.9565 29.2684 20.2427 29.2684 19.5289C29.2684 18.7866 29.1825 18.0728 28.9821 17.3876C28.8103 16.7024 28.5239 16.0457 28.1517 15.4176C27.9799 15.1035 27.6362 15.0464 27.3785 15.2463C27.1208 15.4747 27.0635 15.9029 27.2353 16.1884C27.5217 16.7024 27.7412 17.2448 27.8939 17.8158C28.0467 18.3678 28.123 18.9389 28.123 19.5289C28.123 20.0999 28.0467 20.6709 27.8939 21.242C27.7412 21.794 27.5217 22.3269 27.2353 22.8408C27.0635 23.1549 27.1208 23.5832 27.3785 23.783C27.6362 24.0114 27.9799 23.9258 28.1517 23.6117C28.5239 22.9836 28.8103 22.3269 28.9821 21.6417ZM24.6296 20.0143C24.6487 19.843 24.6582 19.6812 24.6582 19.5289C24.6582 19.3576 24.6487 19.1863 24.6296 19.015C24.6105 18.8437 24.5818 18.6819 24.5437 18.5296C24.4578 18.1585 24.1428 17.9586 23.8278 18.0443C23.5414 18.1585 23.3696 18.5296 23.4555 18.8722C23.4746 18.9864 23.4937 19.0911 23.5128 19.1863C23.5128 19.3005 23.5128 19.4147 23.5128 19.5289C23.5128 19.6431 23.5128 19.7478 23.5128 19.843C23.4937 19.9381 23.4746 20.0428 23.4555 20.157C23.3696 20.5282 23.5414 20.8994 23.8278 20.985C24.1428 21.0992 24.4578 20.8708 24.5437 20.5282C24.5818 20.3569 24.6105 20.1856 24.6296 20.0143ZM26.7199 20.8708C26.8154 20.433 26.8631 19.9857 26.8631 19.5289C26.8631 19.0721 26.8154 18.6153 26.7199 18.1585C26.6245 17.7207 26.4813 17.3019 26.2904 16.9022C26.1186 16.5596 25.775 16.4454 25.5173 16.6167C25.2309 16.8166 25.145 17.2163 25.2882 17.5589C25.4409 17.8634 25.5554 18.187 25.6318 18.5296C25.7082 18.8532 25.7463 19.1863 25.7463 19.5289C25.7463 19.8715 25.7082 20.2046 25.6318 20.5282C25.5554 20.8518 25.4409 21.1658 25.2882 21.4704C25.145 21.813 25.2309 22.2127 25.5173 22.4126C25.775 22.5839 26.1186 22.4697 26.2904 22.1556C26.4813 21.7369 26.6245 21.3086 26.7199 20.8708Z" fill="url(#paint0_linear_575_564)"/>
<defs>
<linearGradient id="paint0_linear_575_564" x1="0.37582" y1="0" x2="0.37582" y2="39.0293" gradientUnits="userSpaceOnUse">
<stop stop-color="#7832D2"/>
<stop offset="0.1" stop-color="#7832D2"/>
<stop offset="1" stop-color="#2E12B7"/>
</linearGradient>
</defs>
</svg>
